<svg width="2048" height="2048" viewBox="0 0 2048 2048" fill="none" xmlns="http://www.w3.org/2000/svg">
  <path fill-rule="evenodd" clip-rule="evenodd" d="M1024 1592C1119 1592 1208.55 1568.68 1287.24 1527.45L1433.58 1673.79C1315.04 1748.66 1174.58 1792 1024 1792C599.845 1792 256 1448.15 256 1024C256 599.845 599.845 256 1024 256C1448.15 256 1792 599.845 1792 1024C1792 1174.58 1748.66 1315.04 1673.79 1433.58L1527.45 1287.24C1568.68 1208.55 1592 1119 1592 1024C1592 710.302 1337.7 456 1024 456C710.302 456 456 710.302 456 1024C456 1337.7 710.302 1592 1024 1592ZM1399.42 1258L1258 1399.42L1650.32 1791.74L1791.74 1650.32L1399.42 1258Z" fill="url(#paint0_linear_207_2)" />
  <defs>
    <linearGradient id="paint0_linear_207_2" x1="256" y1="256" x2="1792" y2="1792" gradientUnits="userSpaceOnUse">
      <stop offset="0.149369" stop-color="#10B981" />
      <stop offset="0.858763" stop-color="#059669" />
    </linearGradient>
  </defs>
</svg>